<mxfile host="app.diagrams.net" agent="Mozilla/5.0 (Windows NT 10.0; Win64; x64) AppleWebKit/537.36 (KHTML, like Gecko) Chrome/127.0.0.0 Safari/537.36 Edg/127.0.0.0" version="24.7.7">
  <diagram name="Página-1" id="XZMj1RtXGpoSELeLbi9E">
    <mxGraphModel dx="1188" dy="691" grid="1" gridSize="10" guides="1" tooltips="1" connect="1" arrows="1" fold="1" page="1" pageScale="1" pageWidth="827" pageHeight="1169" math="0" shadow="0">
      <root>
        <mxCell id="0" />
        <mxCell id="1" parent="0" />
        <mxCell id="wgHs0JKu5NM7Zx9zBye6-25" style="edgeStyle=orthogonalEdgeStyle;shape=connector;rounded=0;orthogonalLoop=1;jettySize=auto;html=1;entryX=0.5;entryY=0;entryDx=0;entryDy=0;strokeColor=default;align=center;verticalAlign=middle;fontFamily=Helvetica;fontSize=11;fontColor=default;labelBackgroundColor=default;endArrow=none;endFill=0;" edge="1" parent="1" source="wgHs0JKu5NM7Zx9zBye6-1" target="wgHs0JKu5NM7Zx9zBye6-4">
          <mxGeometry relative="1" as="geometry" />
        </mxCell>
        <mxCell id="wgHs0JKu5NM7Zx9zBye6-1" value="Aluno" style="whiteSpace=wrap;html=1;align=center;" vertex="1" parent="1">
          <mxGeometry x="150" y="140" width="100" height="50" as="geometry" />
        </mxCell>
        <mxCell id="wgHs0JKu5NM7Zx9zBye6-2" value="Disciplina" style="whiteSpace=wrap;html=1;align=center;" vertex="1" parent="1">
          <mxGeometry x="360" y="390" width="100" height="50" as="geometry" />
        </mxCell>
        <mxCell id="wgHs0JKu5NM7Zx9zBye6-3" value="Professor" style="whiteSpace=wrap;html=1;align=center;" vertex="1" parent="1">
          <mxGeometry x="640" y="140" width="100" height="50" as="geometry" />
        </mxCell>
        <mxCell id="wgHs0JKu5NM7Zx9zBye6-4" value="Matrícula" style="ellipse;whiteSpace=wrap;html=1;align=center;" vertex="1" parent="1">
          <mxGeometry x="150" y="210" width="100" height="40" as="geometry" />
        </mxCell>
        <mxCell id="wgHs0JKu5NM7Zx9zBye6-5" value="Sigla" style="ellipse;whiteSpace=wrap;html=1;align=center;" vertex="1" parent="1">
          <mxGeometry x="240" y="395" width="100" height="40" as="geometry" />
        </mxCell>
        <mxCell id="wgHs0JKu5NM7Zx9zBye6-6" value="Nome" style="ellipse;whiteSpace=wrap;html=1;align=center;" vertex="1" parent="1">
          <mxGeometry x="490" y="395" width="100" height="40" as="geometry" />
        </mxCell>
        <mxCell id="wgHs0JKu5NM7Zx9zBye6-24" style="edgeStyle=orthogonalEdgeStyle;shape=connector;rounded=0;orthogonalLoop=1;jettySize=auto;html=1;entryX=0.5;entryY=0;entryDx=0;entryDy=0;strokeColor=default;align=center;verticalAlign=middle;fontFamily=Helvetica;fontSize=11;fontColor=default;labelBackgroundColor=default;endArrow=none;endFill=0;" edge="1" parent="1" source="wgHs0JKu5NM7Zx9zBye6-7" target="wgHs0JKu5NM7Zx9zBye6-1">
          <mxGeometry relative="1" as="geometry" />
        </mxCell>
        <mxCell id="wgHs0JKu5NM7Zx9zBye6-27" style="edgeStyle=none;shape=connector;rounded=0;orthogonalLoop=1;jettySize=auto;html=1;entryX=0.5;entryY=1;entryDx=0;entryDy=0;strokeColor=default;align=center;verticalAlign=middle;fontFamily=Helvetica;fontSize=11;fontColor=default;labelBackgroundColor=default;endArrow=none;endFill=0;" edge="1" parent="1" source="wgHs0JKu5NM7Zx9zBye6-7" target="wgHs0JKu5NM7Zx9zBye6-17">
          <mxGeometry relative="1" as="geometry" />
        </mxCell>
        <mxCell id="wgHs0JKu5NM7Zx9zBye6-7" value="Endereço" style="ellipse;whiteSpace=wrap;html=1;align=center;" vertex="1" parent="1">
          <mxGeometry x="150" y="80" width="100" height="40" as="geometry" />
        </mxCell>
        <mxCell id="wgHs0JKu5NM7Zx9zBye6-13" value="Nome" style="ellipse;whiteSpace=wrap;html=1;align=center;" vertex="1" parent="1">
          <mxGeometry x="640" y="70" width="100" height="40" as="geometry" />
        </mxCell>
        <mxCell id="wgHs0JKu5NM7Zx9zBye6-14" value="Matrícula" style="ellipse;whiteSpace=wrap;html=1;align=center;" vertex="1" parent="1">
          <mxGeometry x="639.9994548483456" y="219.99939740349268" width="100" height="40" as="geometry" />
        </mxCell>
        <mxCell id="wgHs0JKu5NM7Zx9zBye6-21" style="rounded=0;orthogonalLoop=1;jettySize=auto;html=1;endArrow=none;endFill=0;" edge="1" parent="1" source="wgHs0JKu5NM7Zx9zBye6-15" target="wgHs0JKu5NM7Zx9zBye6-1">
          <mxGeometry relative="1" as="geometry" />
        </mxCell>
        <mxCell id="wgHs0JKu5NM7Zx9zBye6-15" value="Telefone" style="ellipse;shape=doubleEllipse;margin=3;whiteSpace=wrap;html=1;align=center;" vertex="1" parent="1">
          <mxGeometry x="20" y="145" width="100" height="40" as="geometry" />
        </mxCell>
        <mxCell id="wgHs0JKu5NM7Zx9zBye6-23" style="shape=connector;rounded=0;orthogonalLoop=1;jettySize=auto;html=1;exitX=1;exitY=0.5;exitDx=0;exitDy=0;strokeColor=default;align=center;verticalAlign=middle;fontFamily=Helvetica;fontSize=11;fontColor=default;labelBackgroundColor=default;endArrow=none;endFill=0;entryX=0;entryY=0;entryDx=0;entryDy=0;" edge="1" parent="1" source="wgHs0JKu5NM7Zx9zBye6-16" target="wgHs0JKu5NM7Zx9zBye6-1">
          <mxGeometry relative="1" as="geometry">
            <mxPoint x="130" y="140" as="targetPoint" />
          </mxGeometry>
        </mxCell>
        <mxCell id="wgHs0JKu5NM7Zx9zBye6-16" value="Nome" style="ellipse;whiteSpace=wrap;html=1;align=center;" vertex="1" parent="1">
          <mxGeometry x="20" y="80" width="100" height="40" as="geometry" />
        </mxCell>
        <mxCell id="wgHs0JKu5NM7Zx9zBye6-17" value="Número" style="ellipse;whiteSpace=wrap;html=1;align=center;" vertex="1" parent="1">
          <mxGeometry x="170" y="30" width="60" height="20" as="geometry" />
        </mxCell>
        <mxCell id="wgHs0JKu5NM7Zx9zBye6-18" value="Rua" style="ellipse;whiteSpace=wrap;html=1;align=center;" vertex="1" parent="1">
          <mxGeometry x="110" y="50" width="60" height="20" as="geometry" />
        </mxCell>
        <mxCell id="wgHs0JKu5NM7Zx9zBye6-19" value="Bairro" style="ellipse;whiteSpace=wrap;html=1;align=center;" vertex="1" parent="1">
          <mxGeometry x="240" y="50" width="60" height="20" as="geometry" />
        </mxCell>
        <mxCell id="wgHs0JKu5NM7Zx9zBye6-26" style="shape=connector;rounded=0;orthogonalLoop=1;jettySize=auto;html=1;entryX=1.023;entryY=0.693;entryDx=0;entryDy=0;entryPerimeter=0;strokeColor=default;align=center;verticalAlign=middle;fontFamily=Helvetica;fontSize=11;fontColor=default;labelBackgroundColor=default;endArrow=none;endFill=0;" edge="1" parent="1" source="wgHs0JKu5NM7Zx9zBye6-7" target="wgHs0JKu5NM7Zx9zBye6-18">
          <mxGeometry relative="1" as="geometry" />
        </mxCell>
        <mxCell id="wgHs0JKu5NM7Zx9zBye6-28" style="edgeStyle=none;shape=connector;rounded=0;orthogonalLoop=1;jettySize=auto;html=1;entryX=0.399;entryY=1.067;entryDx=0;entryDy=0;entryPerimeter=0;strokeColor=default;align=center;verticalAlign=middle;fontFamily=Helvetica;fontSize=11;fontColor=default;labelBackgroundColor=default;endArrow=none;endFill=0;" edge="1" parent="1" source="wgHs0JKu5NM7Zx9zBye6-7" target="wgHs0JKu5NM7Zx9zBye6-19">
          <mxGeometry relative="1" as="geometry" />
        </mxCell>
        <mxCell id="wgHs0JKu5NM7Zx9zBye6-31" style="edgeStyle=none;shape=connector;rounded=0;orthogonalLoop=1;jettySize=auto;html=1;entryX=0.5;entryY=0;entryDx=0;entryDy=0;strokeColor=default;align=center;verticalAlign=middle;fontFamily=Helvetica;fontSize=11;fontColor=default;labelBackgroundColor=default;endArrow=none;endFill=0;" edge="1" parent="1" source="wgHs0JKu5NM7Zx9zBye6-35" target="wgHs0JKu5NM7Zx9zBye6-2">
          <mxGeometry relative="1" as="geometry" />
        </mxCell>
        <mxCell id="wgHs0JKu5NM7Zx9zBye6-29" value="Matrícula" style="shape=rhombus;perimeter=rhombusPerimeter;whiteSpace=wrap;html=1;align=center;fontFamily=Helvetica;fontSize=11;fontColor=default;labelBackgroundColor=default;" vertex="1" parent="1">
          <mxGeometry x="330" y="210" width="120" height="60" as="geometry" />
        </mxCell>
        <mxCell id="wgHs0JKu5NM7Zx9zBye6-30" style="edgeStyle=none;shape=connector;rounded=0;orthogonalLoop=1;jettySize=auto;html=1;entryX=0.987;entryY=0.649;entryDx=0;entryDy=0;entryPerimeter=0;strokeColor=default;align=center;verticalAlign=middle;fontFamily=Helvetica;fontSize=11;fontColor=default;labelBackgroundColor=default;endArrow=none;endFill=0;" edge="1" parent="1" source="wgHs0JKu5NM7Zx9zBye6-29" target="wgHs0JKu5NM7Zx9zBye6-1">
          <mxGeometry relative="1" as="geometry" />
        </mxCell>
        <mxCell id="wgHs0JKu5NM7Zx9zBye6-34" value="N" style="edgeLabel;html=1;align=center;verticalAlign=middle;resizable=0;points=[];fontFamily=Helvetica;fontSize=11;fontColor=default;labelBackgroundColor=default;" vertex="1" connectable="0" parent="wgHs0JKu5NM7Zx9zBye6-30">
          <mxGeometry x="-0.1874" y="-1" relative="1" as="geometry">
            <mxPoint x="-5" y="-3" as="offset" />
          </mxGeometry>
        </mxCell>
        <mxCell id="wgHs0JKu5NM7Zx9zBye6-32" value="&lt;span style=&quot;border-bottom: 1px dotted&quot;&gt;Data&lt;/span&gt;" style="ellipse;whiteSpace=wrap;html=1;align=center;fontFamily=Helvetica;fontSize=11;fontColor=default;labelBackgroundColor=default;" vertex="1" parent="1">
          <mxGeometry x="240" y="290" width="80" height="30" as="geometry" />
        </mxCell>
        <mxCell id="wgHs0JKu5NM7Zx9zBye6-33" style="edgeStyle=none;shape=connector;rounded=0;orthogonalLoop=1;jettySize=auto;html=1;entryX=0.792;entryY=0.146;entryDx=0;entryDy=0;entryPerimeter=0;strokeColor=default;align=center;verticalAlign=middle;fontFamily=Helvetica;fontSize=11;fontColor=default;labelBackgroundColor=default;endArrow=none;endFill=0;" edge="1" parent="1" source="wgHs0JKu5NM7Zx9zBye6-29" target="wgHs0JKu5NM7Zx9zBye6-32">
          <mxGeometry relative="1" as="geometry" />
        </mxCell>
        <mxCell id="wgHs0JKu5NM7Zx9zBye6-36" value="" style="edgeStyle=none;shape=connector;rounded=0;orthogonalLoop=1;jettySize=auto;html=1;entryX=0.5;entryY=0;entryDx=0;entryDy=0;strokeColor=default;align=center;verticalAlign=middle;fontFamily=Helvetica;fontSize=11;fontColor=default;labelBackgroundColor=default;endArrow=none;endFill=0;" edge="1" parent="1" source="wgHs0JKu5NM7Zx9zBye6-29" target="wgHs0JKu5NM7Zx9zBye6-35">
          <mxGeometry relative="1" as="geometry">
            <mxPoint x="394" y="268" as="sourcePoint" />
            <mxPoint x="410" y="390" as="targetPoint" />
          </mxGeometry>
        </mxCell>
        <mxCell id="wgHs0JKu5NM7Zx9zBye6-35" value="N" style="text;html=1;align=center;verticalAlign=middle;resizable=0;points=[];autosize=1;strokeColor=none;fillColor=none;fontFamily=Helvetica;fontSize=11;fontColor=default;labelBackgroundColor=default;" vertex="1" parent="1">
          <mxGeometry x="384" y="310" width="30" height="30" as="geometry" />
        </mxCell>
        <mxCell id="wgHs0JKu5NM7Zx9zBye6-38" style="edgeStyle=none;shape=connector;rounded=0;orthogonalLoop=1;jettySize=auto;html=1;entryX=0;entryY=0.5;entryDx=0;entryDy=0;strokeColor=default;align=center;verticalAlign=middle;fontFamily=Helvetica;fontSize=11;fontColor=default;labelBackgroundColor=default;endArrow=none;endFill=0;" edge="1" parent="1" source="wgHs0JKu5NM7Zx9zBye6-37" target="wgHs0JKu5NM7Zx9zBye6-3">
          <mxGeometry relative="1" as="geometry" />
        </mxCell>
        <mxCell id="wgHs0JKu5NM7Zx9zBye6-41" value="1" style="edgeLabel;html=1;align=center;verticalAlign=middle;resizable=0;points=[];fontFamily=Helvetica;fontSize=11;fontColor=default;labelBackgroundColor=default;" vertex="1" connectable="0" parent="wgHs0JKu5NM7Zx9zBye6-38">
          <mxGeometry x="-0.0304" y="1" relative="1" as="geometry">
            <mxPoint as="offset" />
          </mxGeometry>
        </mxCell>
        <mxCell id="wgHs0JKu5NM7Zx9zBye6-37" value="Responsabilidade" style="shape=rhombus;perimeter=rhombusPerimeter;whiteSpace=wrap;html=1;align=center;fontFamily=Helvetica;fontSize=11;fontColor=default;labelBackgroundColor=default;" vertex="1" parent="1">
          <mxGeometry x="490" y="270" width="120" height="60" as="geometry" />
        </mxCell>
        <mxCell id="wgHs0JKu5NM7Zx9zBye6-39" style="edgeStyle=none;shape=connector;rounded=0;orthogonalLoop=1;jettySize=auto;html=1;entryX=1.027;entryY=0.39;entryDx=0;entryDy=0;entryPerimeter=0;strokeColor=default;align=center;verticalAlign=middle;fontFamily=Helvetica;fontSize=11;fontColor=default;labelBackgroundColor=default;endArrow=none;endFill=0;" edge="1" parent="1" source="wgHs0JKu5NM7Zx9zBye6-37" target="wgHs0JKu5NM7Zx9zBye6-2">
          <mxGeometry relative="1" as="geometry" />
        </mxCell>
        <mxCell id="wgHs0JKu5NM7Zx9zBye6-40" value="N" style="edgeLabel;html=1;align=center;verticalAlign=middle;resizable=0;points=[];fontFamily=Helvetica;fontSize=11;fontColor=default;labelBackgroundColor=default;" vertex="1" connectable="0" parent="wgHs0JKu5NM7Zx9zBye6-39">
          <mxGeometry x="-0.3713" y="-1" relative="1" as="geometry">
            <mxPoint as="offset" />
          </mxGeometry>
        </mxCell>
        <mxCell id="wgHs0JKu5NM7Zx9zBye6-43" style="edgeStyle=none;shape=connector;rounded=0;orthogonalLoop=1;jettySize=auto;html=1;entryX=1;entryY=0.25;entryDx=0;entryDy=0;strokeColor=default;align=center;verticalAlign=middle;fontFamily=Helvetica;fontSize=11;fontColor=default;labelBackgroundColor=default;endArrow=none;endFill=0;" edge="1" parent="1" source="wgHs0JKu5NM7Zx9zBye6-42" target="wgHs0JKu5NM7Zx9zBye6-1">
          <mxGeometry relative="1" as="geometry" />
        </mxCell>
        <mxCell id="wgHs0JKu5NM7Zx9zBye6-45" value="1" style="edgeLabel;html=1;align=center;verticalAlign=middle;resizable=0;points=[];fontFamily=Helvetica;fontSize=11;fontColor=default;labelBackgroundColor=default;" vertex="1" connectable="0" parent="wgHs0JKu5NM7Zx9zBye6-43">
          <mxGeometry x="-0.0721" y="-3" relative="1" as="geometry">
            <mxPoint as="offset" />
          </mxGeometry>
        </mxCell>
        <mxCell id="wgHs0JKu5NM7Zx9zBye6-44" style="edgeStyle=none;shape=connector;rounded=0;orthogonalLoop=1;jettySize=auto;html=1;entryX=0;entryY=0.5;entryDx=0;entryDy=0;strokeColor=default;align=center;verticalAlign=middle;fontFamily=Helvetica;fontSize=11;fontColor=default;labelBackgroundColor=default;endArrow=none;endFill=0;" edge="1" parent="1" source="wgHs0JKu5NM7Zx9zBye6-42" target="wgHs0JKu5NM7Zx9zBye6-3">
          <mxGeometry relative="1" as="geometry" />
        </mxCell>
        <mxCell id="wgHs0JKu5NM7Zx9zBye6-46" value="1" style="edgeLabel;html=1;align=center;verticalAlign=middle;resizable=0;points=[];fontFamily=Helvetica;fontSize=11;fontColor=default;labelBackgroundColor=default;" vertex="1" connectable="0" parent="wgHs0JKu5NM7Zx9zBye6-44">
          <mxGeometry x="0.0344" relative="1" as="geometry">
            <mxPoint as="offset" />
          </mxGeometry>
        </mxCell>
        <mxCell id="wgHs0JKu5NM7Zx9zBye6-42" value="Matrícula" style="shape=rhombus;perimeter=rhombusPerimeter;whiteSpace=wrap;html=1;align=center;fontFamily=Helvetica;fontSize=11;fontColor=default;labelBackgroundColor=default;" vertex="1" parent="1">
          <mxGeometry x="370" y="85" width="120" height="60" as="geometry" />
        </mxCell>
      </root>
    </mxGraphModel>
  </diagram>
</mxfile>
